M48
; DRILL file {KiCad 5.99.0+really5.1.10+dfsg1-1} date Mon Dec 27 14:24:08 2021
; FORMAT={-:-/ absolute / inch / decimal}
; #@! TF.CreationDate,2021-12-27T14:24:08+01:00
; #@! TF.GenerationSoftware,Kicad,Pcbnew,5.99.0+really5.1.10+dfsg1-1
; #@! TF.FileFunction,Plated,1,2,PTH
FMAT,2
INCH
T1C0.1260
T2C0.1969
T3C0.2441
T4C0.2835
T5C0.3858
T6C0.5906
%
G90
G05
T1
X-5.1457Y-1.1024
X-5.1457Y-8.7402
X-3.7795Y-7.9528
X-2.9134Y-7.9528
X2.5591Y-1.1024
X2.5591Y-8.7402
X10.2638Y-1.1024
X10.2638Y-8.7402
T2
X-4.7441Y-7.0866
X2.1654Y-2.5591
T3
X-3.622Y-5.9843
X-3.0709Y-5.9843
X-1.2598Y-6.2992
X-1.2598Y-7.2835
X-0.7087Y-6.2992
X-0.7087Y-7.2835
X1.378Y-6.2992
X7.874Y-4.7638
T4
X-3.3465Y-2.5591
X-3.3465Y-3.7402
X-3.3465Y-4.9213
X-0.9843Y-2.5591
X-0.9843Y-4.9213
X1.378Y-2.5591
X1.378Y-4.9213
X3.7402Y-2.5591
X3.7402Y-3.7402
X3.7402Y-4.9213
X3.7402Y-6.1024
X6.1024Y-2.5591
X6.1024Y-3.7402
X6.1024Y-4.9213
X6.1024Y-6.1024
X8.4646Y-2.5591
X8.4646Y-3.7402
X8.4646Y-6.4961
T5
X7.874Y-7.9134
X9.0551Y-4.7638
X9.0551Y-7.9134
T6
X-3.3465Y-7.9528
T0
M30
