%TF.GenerationSoftware,KiCad,Pcbnew,5.99.0+really5.1.10+dfsg1-1*%
%TF.CreationDate,2021-12-27T14:24:10+01:00*%
%TF.ProjectId,polykit-panel,706f6c79-6b69-4742-9d70-616e656c2e6b,v1.0.0*%
%TF.SameCoordinates,Original*%
%TF.FileFunction,Soldermask,Bot*%
%TF.FilePolarity,Negative*%
%FSLAX46Y46*%
G04 Gerber Fmt 4.6, Leading zero omitted, Abs format (unit mm)*
G04 Created by KiCad (PCBNEW 5.99.0+really5.1.10+dfsg1-1) date 2021-12-27 14:24:10*
%MOMM*%
%LPD*%
G01*
G04 APERTURE LIST*
%ADD10C,6.500000*%
%ADD11C,7.500000*%
%ADD12C,5.500000*%
%ADD13C,4.000000*%
%ADD14C,10.000000*%
%ADD15C,3.300000*%
%ADD16C,15.100000*%
G04 APERTURE END LIST*
D10*
%TO.C,REF\u002A\u002A*%
X-92000000Y-152000000D03*
%TD*%
%TO.C,REF\u002A\u002A*%
X-32000000Y-185000000D03*
%TD*%
%TO.C,REF\u002A\u002A*%
X-32000000Y-160000000D03*
%TD*%
D11*
%TO.C,REF\u002A\u002A*%
X155000000Y-125000000D03*
%TD*%
%TO.C,REF\u002A\u002A*%
X155000000Y-65000000D03*
%TD*%
%TO.C,REF\u002A\u002A*%
X155000000Y-95000000D03*
%TD*%
%TO.C,REF\u002A\u002A*%
X155000000Y-155000000D03*
%TD*%
D12*
%TO.C,REF\u002A\u002A*%
X-120500000Y-180000000D03*
%TD*%
%TO.C,REF\u002A\u002A*%
X55000000Y-65000000D03*
%TD*%
D13*
%TO.C,REF\u002A\u002A*%
X260700000Y-222000000D03*
X260700000Y-28000000D03*
%TD*%
%TO.C,REF\u002A\u002A*%
X65000000Y-222000000D03*
X65000000Y-28000000D03*
%TD*%
%TO.C,REF\u002A\u002A*%
X-130700000Y-222000000D03*
X-130700000Y-28000000D03*
%TD*%
D10*
%TO.C,REF\u002A\u002A*%
X-18000000Y-185000000D03*
%TD*%
%TO.C,REF\u002A\u002A*%
X-18000000Y-160000000D03*
%TD*%
D14*
%TO.C,REF\u002A\u002A*%
X200000000Y-201000000D03*
%TD*%
%TO.C,REF\u002A\u002A*%
X230000000Y-201000000D03*
%TD*%
%TO.C,REF\u002A\u002A*%
X230000000Y-121000000D03*
%TD*%
D11*
%TO.C,REF\u002A\u002A*%
X215000000Y-165000000D03*
%TD*%
D10*
%TO.C,REF\u002A\u002A*%
X200000000Y-121000000D03*
%TD*%
%TO.C,REF\u002A\u002A*%
X35000000Y-160000000D03*
%TD*%
%TO.C,REF\u002A\u002A*%
X-78000000Y-152000000D03*
%TD*%
D11*
%TO.C,REF\u002A\u002A*%
X35000000Y-65000000D03*
%TD*%
%TO.C,REF\u002A\u002A*%
X35000000Y-125000000D03*
%TD*%
%TO.C,REF\u002A\u002A*%
X-25000000Y-65000000D03*
%TD*%
%TO.C,REF\u002A\u002A*%
X-25000000Y-125000000D03*
%TD*%
%TO.C,REF\u002A\u002A*%
X215000000Y-65000000D03*
%TD*%
%TO.C,REF\u002A\u002A*%
X215000000Y-95000000D03*
%TD*%
%TO.C,REF\u002A\u002A*%
X95000000Y-155000000D03*
%TD*%
%TO.C,REF\u002A\u002A*%
X95000000Y-125000000D03*
%TD*%
%TO.C,REF\u002A\u002A*%
X95000000Y-65000000D03*
%TD*%
%TO.C,REF\u002A\u002A*%
X95000000Y-95000000D03*
%TD*%
%TO.C,REF\u002A\u002A*%
X-85000000Y-125000000D03*
%TD*%
%TO.C,REF\u002A\u002A*%
X-85000000Y-95000000D03*
%TD*%
%TO.C,REF\u002A\u002A*%
X-85000000Y-65000000D03*
%TD*%
D15*
%TO.C,REF\u002A\u002A*%
X-96000000Y-202000000D03*
X-74000000Y-202000000D03*
D16*
X-85000000Y-202000000D03*
%TD*%
M02*
